{
	"asset":{
		"copyright":"karam",
		"generator":"Khronos glTF Blender I/O v4.2.60",
		"version":"2.0"
	},
	"extensionsUsed":[
		"KHR_texture_transform"
	],
	"extensionsRequired":[
		"KHR_texture_transform"
	],
	"scene":0,
	"scenes":[
		{
			"name":"Scene",
			"nodes":[
				0
			]
		}
	],
	"nodes":[
		{
			"mesh":0,
			"name":"typescript",
			"translation":[
				0.1731138527393341,
				0,
				0.051709506660699844
			]
		}
	],
	"materials":[
		{
			"doubleSided":true,
			"name":"Material",
			"pbrMetallicRoughness":{
				"baseColorTexture":{
					"index":0
				},
				"metallicFactor":0,
				"metallicRoughnessTexture":{
					"extensions":{
						"KHR_texture_transform":{
							"offset":[
								0,
								-59.59999465942383
							],
							"scale":[
								60.59999465942383,
								60.59999465942383
							]
						}
					},
					"index":1
				}
			}
		}
	],
	"meshes":[
		{
			"name":"Curve.002",
			"primitives":[
				{
					"attributes":{
						"POSITION":0,
						"NORMAL":1,
						"TEXCOORD_0":2
					},
					"indices":3,
					"material":0
				}
			]
		}
	],
	"textures":[
		{
			"sampler":0,
			"source":0
		},
		{
			"sampler":0,
			"source":1
		}
	],
	"images":[
		{
			"bufferView":4,
			"mimeType":"image/jpeg",
			"name":"nixOS"
		},
		{
			"bufferView":5,
			"mimeType":"image/jpeg",
			"name":"avd7f1455ebee013012d3"
		}
	],
	"accessors":[
		{
			"bufferView":0,
			"componentType":5126,
			"count":1504,
			"max":[
				0.11407329887151718,
				0.0003543668717611581,
				0
			],
			"min":[
				0,
				-0.009999999776482582,
				-0.11404920369386673
			],
			"type":"VEC3"
		},
		{
			"bufferView":1,
			"componentType":5126,
			"count":1504,
			"type":"VEC3"
		},
		{
			"bufferView":2,
			"componentType":5126,
			"count":1504,
			"type":"VEC2"
		},
		{
			"bufferView":3,
			"componentType":5123,
			"count":4344,
			"type":"SCALAR"
		}
	],
	"bufferViews":[
		{
			"buffer":0,
			"byteLength":18048,
			"byteOffset":0,
			"target":34962
		},
		{
			"buffer":0,
			"byteLength":18048,
			"byteOffset":18048,
			"target":34962
		},
		{
			"buffer":0,
			"byteLength":12032,
			"byteOffset":36096,
			"target":34962
		},
		{
			"buffer":0,
			"byteLength":8688,
			"byteOffset":48128,
			"target":34963
		},
		{
			"buffer":0,
			"byteLength":31941,
			"byteOffset":56816
		},
		{
			"buffer":0,
			"byteLength":112735,
			"byteOffset":88760
		}
	],
	"samplers":[
		{
			"magFilter":9729,
			"minFilter":9987
		}
	],
	"buffers":[
		{
			"byteLength":201496,
			"uri":"data:application/octet-stream;base64,"
		}
	]
}
